<?xml version="1.0" encoding="utf-8"?>
<!-- Generator: Adobe Illustrator 19.2.1, SVG Export Plug-In . SVG Version: 6.00 Build 0)  -->
<svg version="1.1" id="Ebene_1" xmlns="http://www.w3.org/2000/svg" xmlns:xlink="http://www.w3.org/1999/xlink" x="0px" y="0px"
	 viewBox="0 0 243 100" style="enable-background:new 0 0 243 100;" xml:space="preserve">
<style type="text/css">
	.st0{fill:#04A082;}
	.st1{fill:#FFFFFF;}
</style>
<g>
	<polygon class="st0" points="70.1,95 93.8,4.2 28.7,4.2 5,95 	"/>
	<polygon class="st0" points="141.7,95 165.3,4.2 100.2,4.2 76.5,95 	"/>
	<path class="st1" d="M41.7,88.3h-27L34.4,13h50.4l-5,21.1H56.4l-2.7,9.5h20.6l-4.7,18.2H48.7L41.7,88.3z"/>
	<path class="st1" d="M113.2,88.3h-27L105.9,13h50.4l-5,21.1h-23.4l-2.7,9.5h20.6l-4.7,18.2h-20.9L113.2,88.3z"/>
	<polygon class="st0" points="212.7,95 236.4,4.2 172.3,4.2 148.6,95 	"/>
	<path class="st1" d="M196.1,88.3h-27l13.6-52h-11l6-23.2h48.1l-5.6,23.7h-10.9L196.1,88.3z"/>
</g>
</svg>
