<svg xmlns="http://www.w3.org/2000/svg" viewBox="0 0 123.27 123.27"><defs><style>.cls-1{fill:#0060ff;}.cls-2{fill:#fff;}</style></defs><g id="Layer_2" data-name="Layer 2"><g id="Layer_1-2" data-name="Layer 1"><circle class="cls-1" cx="61.63" cy="61.63" r="61.63"/><circle class="cls-2" cx="47.63" cy="45.63" r="14"/><path class="cls-2" d="M56,65.63H39.23a3.61,3.61,0,0,0-3.6,3.6v7.68a9,9,0,0,0,2.64,6.36L53.15,98.15a3.8,3.8,0,0,0,6.48-2.69V69.23A3.6,3.6,0,0,0,56,65.63Z"/><path class="cls-2" d="M86,32.63H71.23a3.61,3.61,0,0,0-3.6,3.6V73.46a3.8,3.8,0,0,0,6.49,2.69L87,63.27a9,9,0,0,0,2.63-6.36V36.23A3.6,3.6,0,0,0,86,32.63Z"/></g></g></svg>